<?xml version="1.0" encoding="utf-8"?>
<!-- Generator: Adobe Illustrator 16.0.0, SVG Export Plug-In . SVG Version: 6.00 Build 0)  -->
<!DOCTYPE svg PUBLIC "-//W3C//DTD SVG 1.1//EN" "http://www.w3.org/Graphics/SVG/1.1/DTD/svg11.dtd">
<svg version="1.1" id="Layer_1" xmlns="http://www.w3.org/2000/svg" xmlns:xlink="http://www.w3.org/1999/xlink" x="0px" y="0px"
	 width="469px" height="352px" viewBox="239.5 65.5 469 352" enable-background="new 239.5 65.5 469 352" xml:space="preserve">
<g>
	<path d="M648,348.544c9.855-9.855,36.736-44.353,36.736-63.168c0-21.952-17.92-39.872-39.872-39.872s-39.872,17.92-39.872,39.872
		c0,13.44,13.888,34.944,25.536,49.728c-21.952-12.096-43.456-24.64-65.856-35.84c-5.824-3.136-11.647-6.271-17.472-8.959
		c2.239-1.345,4.032-3.137,6.271-4.929c1.345-1.344,1.345-3.136,0.448-4.479c3.584-6.721,5.824-13.889,5.376-21.504
		c10.752-0.896,21.056-2.24,31.808-3.136c4.032-0.448,3.137-6.72-0.896-6.272c-10.752,0.896-21.504,1.344-32.256,0.448
		c-1.344-4.928-3.136-9.408-5.376-13.888c2.24-1.344,4.479-2.688,6.72-4.032c35.84,6.272,73.92,12.544,108.416-3.584
		c0.896-0.448,1.792-1.344,1.792-2.688c0-20.608-23.744-24.64-41.664-25.984c-0.448,0-1.344-0.448-1.792-0.448
		c-2.24,0-8.96-0.896-10.752-0.896c-1.344,0-63.168,0.448-91.392,4.928c-1.345,0-2.24,1.344-2.688,2.24c-3.584,0-7.616,0-11.2,0
		c8.064-8.512,12.992-19.712,11.2-30.912c11.648-23.744,21.056-48.384,25.536-75.264c0.448-3.136-4.032-4.928-5.824-2.24
		c-12.992,18.368-25.088,36.736-37.184,56c-7.616-2.24-17.024-0.448-24.641,4.928c-5.376,4.032-10.304,8.96-14.336,14.336
		c-2.239-1.792-4.928-3.136-7.168-4.48c-14.783-6.72-24.64,4.928-31.808,17.472c3.136-23.744,12.992-46.144,29.568-63.168
		c2.688-3.136-0.448-7.616-4.032-4.928c-18.816,12.544-35.393,28.224-49.28,46.592c-1.344-0.448-2.688,0-3.584,1.344
		c-8.064,11.2-16.128,21.952-24.192,33.152c-4.928,6.72-11.2,15.68-6.272,23.744c2.24,4.032,5.824,5.824,9.856,6.272
		c3.136,4.48,8.512,7.616,14.336,9.408c-3.584,0.896-6.72,2.24-9.856,3.584c-6.72,2.24-13.44,4.928-20.16,8.064
		c-1.792-0.448-3.584-0.896-5.824-1.344c-3.136-0.896-4.48,3.136-2.688,5.376c-2.24,0.896-4.48,1.792-6.272,3.136
		c-12.992,6.272-10.752,3.584-12.992,4.928c0,0-1.792,0.448-4.032,1.344c12.096-14.336,30.016-40.32,30.016-55.552
		c0-21.952-17.92-39.872-39.872-39.872c-21.952,0-39.872,17.92-39.872,39.872s37.632,66.304,39.872,66.304
		c0,0,0.448-0.448,1.344-0.896c4.48-1.792,16.128-4.032,28.224-9.408c3.136-1.344,6.272-2.688,9.408-4.032
		c3.136,2.688,6.272,5.376,9.408,7.616c-1.344,1.344-2.688,2.24-4.032,3.584c-1.792,2.24-1.344,4.928,1.792,5.824
		c0.896,0.448,1.792,0.448,3.136,0.448c-2.688,3.136-4.928,6.272-6.72,9.408c-3.584,6.272-4.928,14.337,0.896,19.712
		c4.928,4.48,12.544,4.929,18.816,4.032c5.824-0.448,11.2-1.792,16.576-4.032c1.344,0.448,3.136,0.896,4.479,0.896
		c-0.896,7.168-0.448,14.784,2.24,21.952c2.24,6.72,6.72,13.439,12.544,17.472c6.272,4.032,13.888,3.584,21.056,2.24
		c0,0,0,0,0.448,0c-0.448,5.824-0.896,12.096-0.896,17.92c0,3.584,4.928,5.376,6.271,1.792
		c4.928-14.784,15.232-25.088,28.224-31.808c9.408,2.239,20.608,4.928,30.017,1.791c7.616-2.688,12.992-8.96,16.576-16.128
		c4.031-0.896,8.063-1.344,12.096-1.792c3.136-0.447,3.584-4.031,1.344-5.823c-3.136-2.688-6.271-5.376-9.408-8.064v-0.448
		c1.345-0.447,3.137-1.344,4.48-1.791c39.424,13.439,77.952,28.671,114.688,47.487c0.896,0.896,1.793,1.792,2.24,1.792
		c0,0,0.448-0.448,1.344-0.896C646.656,349.888,647.552,349.44,648,348.544z M374.272,217.28c0,0.896,0,1.792,0,3.136
		c-1.792-1.344-2.688-4.032-1.792-8.064c0.896-3.136,3.136-6.272,5.376-9.408C376.064,207.424,374.72,212.352,374.272,217.28z
		 M301.248,198.912c0-10.304,8.064-18.368,18.368-18.368c10.304,0,18.368,8.064,18.368,18.368c0,10.304-8.064,18.368-18.368,18.368
		C309.76,217.28,301.248,208.768,301.248,198.912z M644.416,259.84c10.304,0,18.368,8.064,18.368,18.368
		c0,10.304-8.064,18.368-18.368,18.368s-18.368-8.064-18.368-18.368C626.048,267.904,634.56,259.84,644.416,259.84z
		 M552.128,259.392c0,6.272-1.344,12.544-4.479,17.472c-1.793-0.896-3.584-1.792-5.824-2.688c1.344-4.48,2.688-9.408,3.136-14.336
		C547.2,260.288,549.888,259.84,552.128,259.392z M539.584,280.448c1.344,0.896,2.688,1.344,4.48,2.239
		c-1.345,1.345-2.24,2.688-3.584,4.033c-0.896-0.449-1.793-0.896-2.688-1.345C538.24,283.584,538.688,282.24,539.584,280.448z
		 M539.136,230.72c0-0.448-0.448-0.448-0.448-0.896c0.448,0,0.896-0.448,1.345-0.448c0.896,1.344,2.239,2.688,3.136,4.48
		c-0.448,0.448-1.344,0.896-1.792,0.896C540.48,233.408,540.032,232.064,539.136,230.72z M550.336,249.088
		c-1.792,0-3.584-0.448-5.376-0.448c-0.448-2.688-0.896-4.928-1.344-7.616c0.896-0.448,1.792-0.896,2.688-1.792
		C548.096,242.368,549.44,245.952,550.336,249.088z M548.096,229.824c0.448,0,0.448,0,0.896,0l-0.448,0.448
		C548.096,230.272,548.096,230.272,548.096,229.824z M557.056,225.344c-0.896,0-1.792-0.448-2.688-0.448
		c2.24-0.896,4.032-1.344,6.271-2.24C559.744,223.552,558.4,224.448,557.056,225.344z M639.936,207.872
		c8.513,1.792,21.057,5.824,22.4,15.68c-30.464,13.44-63.616,9.408-95.872,3.584c5.376-3.584,10.304-7.168,15.68-11.2
		c9.856-3.136,19.265-6.72,28.673-10.304C620.224,205.632,630.528,206.08,639.936,207.872z M592.896,204.736
		c-4.48,1.792-9.408,3.136-13.889,4.928c-10.304-1.344-20.16-2.24-30.464-2.688C563.328,205.632,578.112,204.736,592.896,204.736z
		 M564.224,214.592c-7.168,2.24-14.783,4.928-22.399,7.168c-2.688-3.136-5.376-6.272-8.064-9.408
		C544.064,213.248,553.92,213.696,564.224,214.592z M491.648,274.176c0-0.896,0.447-1.792,0.896-2.688
		c1.344,0.448,3.136,1.344,4.48,1.792C494.784,273.728,493.44,273.728,491.648,274.176z M492.992,290.752
		c-0.448,0-0.448,0.448-0.896,0.448c0-0.448,0-0.448,0-0.896C492.096,290.752,492.544,290.752,492.992,290.752z M500.608,294.336
		c1.344,0.896,2.239,1.792,3.584,2.688c-1.345,1.793-2.688,3.137-4.032,4.48c-3.136,0.448-6.272,0.448-9.408,0.448
		c0.448-1.345,0.448-2.24,0.448-3.584C494.784,297.473,497.92,296.128,500.608,294.336z M501.952,286.721
		c-0.448-0.449-1.344-0.896-1.792-1.345c-1.792-1.344-3.584-3.136-5.376-4.928c4.479-0.448,8.512-1.344,12.992-1.792
		c0.896,0.448,1.792,0.896,2.688,1.344C508.224,282.24,505.088,284.48,501.952,286.721z M498.368,267.008
		c1.344-0.448,2.24-0.896,3.584-1.344c1.344,1.344,3.136,3.136,4.479,4.48C503.744,269.248,501.056,268.352,498.368,267.008z
		 M510.016,288.512c0.448-0.447,0.896-0.447,0.896-0.896c-0.448,0.448-0.448,0.896-0.896,1.792c-0.447,0-0.447,0-0.896-0.448
		C509.568,288.96,509.568,288.96,510.016,288.512z M503.744,253.12c-4.032-0.896-8.512-1.344-12.544-1.792
		c-0.896-0.448-1.792-0.896-2.688-1.344c0.448-0.896,0.896-2.24,1.345-3.584c2.688-0.896,5.376-1.792,8.063-3.136
		c5.376,1.792,10.752,3.584,15.68,4.928C510.016,250.432,506.88,251.776,503.744,253.12z M491.648,228.032
		c0.896-1.344,1.792-3.136,2.688-4.48c11.2,0,22.4,1.344,33.6,3.136l0,0c-9.855,3.136-20.159,6.72-30.016,10.304
		c-2.24-0.896-4.032-1.792-6.271-2.24C491.648,232.512,491.648,230.272,491.648,228.032z M507.328,240.128
		c8.063-2.688,16.576-5.376,24.64-8.064c1.345,1.792,2.24,4.032,3.136,5.824c-4.031,2.24-8.512,4.48-12.544,6.72
		C517.632,243.264,512.704,241.92,507.328,240.128z M537.344,244.16c0.448,0.896,0.448,2.24,0.448,3.136
		c-1.792-0.448-3.584-0.448-5.376-0.896C534.208,245.952,536,245.056,537.344,244.16z M524.352,212.352
		c2.688,2.688,5.377,5.376,8.064,8.512c-0.448,0-1.344,0-1.792-0.448c-3.584-3.136-8.064-5.824-12.544-8.064
		C520.32,212.352,522.56,212.352,524.352,212.352z M516.736,218.624c-6.272-0.448-12.544-0.896-19.265-1.344
		c0.896-1.344,1.345-2.688,2.24-4.032c0.448,0,0.448-0.448,0.896-0.448C506.432,214.144,511.808,215.936,516.736,218.624z
		 M536,114.24c-4.032,16.128-9.855,31.36-16.576,46.592c-0.896,1.792-1.792,3.584-2.24,5.376c-2.239-4.48-5.376-7.616-8.512-9.856
		C517.184,142.016,526.592,128.128,536,114.24z M505.088,161.728c4.032,3.136,6.72,7.616,8.064,12.992
		c-4.929,10.304-10.752,20.608-16.576,30.912c-1.792-0.448-3.584-0.896-5.824-1.344c-1.792-0.448-3.136-0.448-4.928-0.896
		c-0.448-1.792-1.344-4.032-2.24-6.272C490.304,185.472,497.472,173.376,505.088,161.728z M482.24,294.784
		c-4.928,1.792-9.856,3.136-14.784,4.032c-3.136-0.896-6.272-1.793-8.96-2.688c1.792-4.479,3.584-8.96,5.376-13.44
		c0.896,0,1.344,0,2.24,0c6.72,1.793,12.991,3.584,19.712,5.824c0,1.793,0.447,3.137,0,4.928
		C484.48,293.889,483.584,294.336,482.24,294.784z M484.48,301.057c0,0.447,0,0.447-0.448,0.896c-0.448,0-1.345,0-1.792,0h0.447
		C483.584,301.057,484.032,301.057,484.48,301.057z M419.52,237.888c-1.344-0.448-3.136-0.896-4.479-1.344
		c0-0.448,0-1.344,0.448-1.792C416.832,236.096,418.176,236.992,419.52,237.888z M416.832,227.136c0-0.448,0-0.448,0-0.896
		c0.448,0.896,1.344,1.792,1.792,2.688C417.728,228.48,417.28,228.032,416.832,227.136z M417.28,248.192
		c-0.896,0.896-1.345,2.24-2.24,3.136c0-0.896,0-1.792,0-2.688C415.488,248.64,416.384,248.192,417.28,248.192z M421.312,287.168
		c0.447-0.447,0.896-0.896,0.896-1.344l0,0c-1.792,2.688-3.584,5.376-4.479,8.512c-0.448-0.896-0.896-1.344-1.345-2.24
		C418.624,290.305,419.968,288.96,421.312,287.168z M421.76,253.12c1.344-2.24,3.137-4.032,4.928-5.824
		c0.448,1.344,0.896,2.688,1.793,3.584l0,0C425.792,251.776,423.552,252.224,421.76,253.12z M439.232,258.496
		c-0.448-0.448-0.896-1.344-0.896-1.792c1.344,0,2.688,0,3.584-0.448c0.448,0,0.896,0,1.344,0c0,0,0,0,0,0.448
		C441.92,257.152,440.576,257.6,439.232,258.496z M439.232,283.137c-0.896,0.896-1.792,2.239-2.688,3.135
		c-0.448,0-0.448-0.447-0.896-0.447c0.447-0.896,0.896-1.792,1.344-2.688C437.888,283.137,438.784,283.137,439.232,283.137z
		 M441.024,219.52c-2.688-0.448-5.376-0.448-8.064-0.896c3.136-0.448,5.824-0.896,8.96-1.344
		C441.472,218.176,441.472,218.624,441.024,219.52z M424.896,213.248c0-0.896,0-1.344,0-2.24c4.031-0.896,8.063-1.344,12.096-1.792
		c0.896,0.448,1.344,1.344,2.24,1.792C433.856,211.904,429.376,212.352,424.896,213.248z M428.032,259.84
		c-0.896,1.792-1.345,3.584-2.24,5.376c-1.344-0.448-2.24-0.448-3.584-0.896C424.448,262.976,426.24,261.184,428.032,259.84z
		 M427.136,228.48c-0.448-1.344-0.896-3.136-0.896-4.48c4.031,0.896,8.063,1.792,12.544,2.24c-0.448,1.344-0.896,2.688-1.344,4.032
		c-1.345,0.896-2.688,1.344-4.032,2.24C431.168,231.168,428.928,229.824,427.136,228.48z M438.336,294.784
		c3.136,1.792,6.272,3.136,8.512,4.032c0.896,0.447,1.792,0.896,3.137,1.344c0,0.447-0.448,1.344-0.448,1.792
		c-5.376,0.448-10.304,0.896-15.68,0.448C434.752,299.712,436.544,297.023,438.336,294.784z M442.368,289.855
		c1.792-2.239,4.032-4.031,6.271-6.271c2.688,0,5.376,0,8.064,0c-1.344,3.584-3.136,7.168-4.48,10.752
		c-0.447,0-0.447-0.447-0.896-0.447C449.088,292.544,445.952,291.2,442.368,289.855z M455.36,268.352
		c-2.688,0.448-5.376,1.344-8.064,1.792c0,0,0-0.448-0.448-0.448c-0.447-0.448-0.447-0.896-0.896-1.344
		c1.344-1.792,3.136-3.584,4.479-5.376c3.584-0.896,7.616-1.792,11.648-2.24C460.288,263.424,457.6,266.112,455.36,268.352z
		 M455.808,232.512c-1.344,2.24-2.688,4.928-4.031,7.168c-0.896-0.448-2.24-0.448-3.137-0.896c0.896-0.896,1.345-2.24,2.24-3.136
		C452.672,234.304,454.464,233.408,455.808,232.512z M452.224,209.216c0-0.448,0.448-0.896,0.448-1.344c0.896,0,1.792,0,3.136,0
		c0,0.448,0,0.448,0,0.896C454.464,209.216,453.12,209.216,452.224,209.216z M447.744,219.968c0.448-0.448,0.448-1.344,0.896-1.792
		c0.896,0.448,1.792,1.344,2.688,1.792C449.984,219.968,449.088,219.968,447.744,219.968z M478.208,228.48
		c-0.448-0.448-0.448-0.896-0.896-1.344c-0.896-0.896-1.793-1.792-3.137-2.24c3.584-0.448,6.721-0.896,10.305-0.896
		c0,0.896,0,1.792,0.447,2.688v0.448c-0.447,1.344-1.344,2.24-1.792,3.584C481.344,229.824,480,228.928,478.208,228.48z
		 M480.896,275.072c-4.929,0.448-9.408,0.896-14.337,0.896c0.896-1.792,1.345-3.136,2.24-4.928c2.688-0.896,5.376-1.344,7.616-2.24
		c0.896,0.896,1.792,1.792,2.688,3.136C480,273.28,480.448,274.176,480.896,275.072z M471.936,217.728
		c0.896-1.344,1.345-2.688,2.24-3.584c2.688,0,5.824-0.448,8.512-0.448c0,0.448,0,0.896,0.448,0.896
		C479.104,215.936,475.52,216.832,471.936,217.728z M472.384,231.616c0,0,0,0.896,0.448,0.896c0.896,1.792,0.448,4.928,0,6.72
		c0,1.792-0.448,3.584-0.896,4.928c-4.031-0.896-7.615-1.792-11.647-2.688c-0.448,0-0.896,0-1.344-0.448
		c2.239-3.584,4.031-8.512,6.271-12.096c0.896,0,1.792-0.896,3.136-0.896l0,0C469.248,228.48,471.04,231.168,472.384,231.616z
		 M460.736,273.28c0,0.448-0.448,0.896-0.448,1.344c-0.448,0-0.896-0.448-1.792-0.448l0,0
		C459.392,273.728,459.84,273.728,460.736,273.28z M484.48,267.904c0.896,0.448,1.344,0.448,2.239,0.896
		c0,0.448-0.448,0.896-0.448,1.344C485.376,269.696,484.928,268.8,484.48,267.904z M493.44,158.592c2.239-0.448,4.031,0,5.823,0.448
		c-6.72,10.304-12.992,21.056-19.264,31.808c-3.136-4.928-6.72-9.856-10.752-13.888C475.072,167.552,483.136,159.936,493.44,158.592
		z M465.216,182.784L465.216,182.784c4.48,4.48,8.064,8.96,10.752,14.336c-0.896,1.792-1.792,3.136-2.688,4.928
		c-3.584-0.448-7.168-0.448-10.752-0.448c0-3.584-0.448-6.72-1.792-10.304C462.08,188.608,463.424,185.472,465.216,182.784z
		 M464.768,207.872c-0.896,0-1.792,0-2.688,0.448c0,0,0,0,0-0.448C462.976,207.872,463.872,207.872,464.768,207.872z
		 M466.112,214.592c-0.896,1.344-1.792,3.136-2.688,4.48c-0.448,0-0.896,0-1.344,0c-0.896-0.448-1.344-0.896-2.24-1.344
		c0.448-0.896,0.448-1.792,0.896-3.136C462.528,215.04,464.32,214.592,466.112,214.592z M441.024,175.168
		c6.72-4.48,13.439-1.344,18.815,3.136c-0.896,1.792-2.24,3.584-3.136,5.376c-1.344-1.792-2.688-3.584-4.032-5.376
		c-0.896-1.344-2.24-1.344-4.032-0.896c-5.823,1.792-11.647,4.48-16.575,8.064C434.752,180.992,437.44,177.408,441.024,175.168z
		 M449.536,184.128c1.792,2.24,3.136,4.032,4.032,6.272c-1.792,3.584-3.584,7.616-4.929,11.2c-3.136,0-6.72,0.448-9.855,0.896
		c-2.688-2.24-5.824-4.928-8.513-7.168C435.648,190.4,442.368,186.816,449.536,184.128z M425.344,199.808
		c1.344,1.344,2.688,2.688,4.48,4.032c-1.792,0.448-3.584,0.896-5.824,0.896c0-0.448,0-0.896,0-1.344
		C424.448,202.048,424.896,201.152,425.344,199.808z M435.2,137.088c-8.513,14.336-14.336,30.464-16.576,46.592
		c-4.48-4.928-8.96-9.856-12.992-15.232C414.592,157.248,424.448,146.496,435.2,137.088z M381.44,221.76
		c-0.896-3.584-0.448-7.168,0.896-11.2c4.032-12.096,11.2-23.744,17.92-34.048c0.448-0.896,0.896-1.344,1.344-2.24
		c4.929,6.272,10.305,12.544,16.128,18.368c0,1.792,0,3.584-0.447,4.928c-5.376,5.824-9.856,12.544-13.44,19.712
		c-6.72,1.792-13.888,3.584-20.608,4.48C382.784,221.76,381.888,221.76,381.44,221.76z M414.592,274.624
		c-0.448,0-0.448,0.448-0.896,0.448c0-0.896,0-1.344,0-2.24C414.144,273.728,414.144,274.176,414.592,274.624z M408.32,249.984
		c0,3.584,0.447,7.168,1.344,10.304v0.448l0,0c-3.136-0.896-6.272-1.792-8.96-2.24c0-2.24,0-4.032,0-6.272
		C403.392,251.328,405.632,250.88,408.32,249.984z M406.528,243.712c0.447-0.448,1.344-1.344,1.792-1.792l0,0
		c0,0.448,0,0.896,0,1.344C407.872,243.264,407.424,243.712,406.528,243.712z M409.664,231.616c0,0.896-0.448,2.24-0.448,3.136
		c-0.448-0.448-1.344-0.448-1.792-0.448s-0.896,0-1.792,0c-0.448,0-0.896-0.448-1.792-0.448c0.896-2.688,1.792-5.376,2.688-7.616
		c0.896,1.344,1.792,2.688,2.688,4.032C410.112,230.72,410.112,231.168,409.664,231.616z M389.056,229.824
		c-1.344-0.448-2.688-1.344-3.584-1.792c0,0,0,0,0.448,0c4.928-0.896,9.856-1.792,14.784-3.136
		c-0.896,2.688-1.792,4.928-2.688,7.616C394.88,231.616,392.192,231.168,389.056,229.824z M382.784,247.296
		c4.032-1.344,8.512-3.136,12.992-4.48c0,1.344-0.448,2.688-0.448,3.584c-0.448,0.448-0.896,0.896-1.344,1.344
		c-4.032,1.792-7.616,3.584-11.2,5.824c-3.584-0.896-7.168-1.792-10.304-2.688C375.616,249.984,379.2,248.64,382.784,247.296z
		 M396.224,273.28c-3.136-0.448-6.271-0.896-9.408-1.344c-1.344-0.896-2.24-1.792-3.584-2.688c2.24-2.24,4.032-4.48,6.272-6.72
		c1.792,0.448,3.584,0.896,5.376,1.344C394.88,267.008,395.328,270.144,396.224,273.28z M368.448,257.152
		c2.24,0.448,4.48,0.896,6.72,1.792c-0.896,0.448-1.344,1.344-2.24,1.792C371.584,259.392,369.792,258.496,368.448,257.152z
		 M385.92,301.057c0.448,0,0.896,0.447,1.344,0.447c-5.824,1.344-12.992,2.24-17.92,0c-9.408-4.48-0.448-16.128,4.032-21.056
		c0.896-0.896,1.792-2.24,3.136-3.136c2.688,0.448,4.928,0.896,7.616,1.344c2.688,2.241,5.376,4.48,8.064,6.72
		c-2.688,3.584-5.376,7.616-7.616,12.097C383.68,297.92,384.576,300.16,385.92,301.057z M397.568,297.473
		c-1.792-0.449-4.032-0.896-5.824-1.793c1.344-2.688,3.136-4.928,4.928-7.168c2.24,1.793,4.48,3.584,6.72,5.377
		C401.6,295.68,399.808,296.576,397.568,297.473z M402.496,272.832c-0.448-2.24-0.896-4.928-1.344-7.168
		c2.239,0.448,4.479,1.344,6.72,1.792v0.448C406.08,269.248,404.288,271.04,402.496,272.832z M408.32,288.96
		c0-0.448-0.448-0.896-0.448-1.344c0.448,0,0.896,0,0.896,0s0,0,0,0.448C408.768,288.064,408.32,288.512,408.32,288.96z
		 M439.68,340.928c-7.168,1.792-13.888,1.792-18.815-1.792c-9.856-6.72-12.992-21.056-11.648-32.256
		c3.584,0.448,7.168,1.344,11.2,1.344c0.896,0.896,1.344,1.345,2.24,2.24c0.447,1.792,1.344,3.584,2.688,4.928
		c0.448,2.688,1.792,5.376,4.032,7.168c3.136,3.137,7.616,4.929,12.544,5.824C441.024,332.416,440.576,336.448,439.68,340.928z
		 M445.504,314.496c-0.448,0-1.344,0-1.792,0c-1.344,0-3.584-0.448-5.376-0.448c-0.448-0.448-0.896-0.896-1.792-0.896
		C439.68,313.6,442.368,314.048,445.504,314.496L445.504,314.496z M445.504,349.888c0-1.792,0.448-3.136,0.448-4.928
		c1.344-0.448,3.136-0.896,4.479-1.344C448.64,345.856,446.848,347.648,445.504,349.888z M446.848,338.688
		c0.448-3.136,0.896-6.271,1.792-9.407c1.792,0,3.584,0,5.376,0c2.24,0.896,4.929,1.792,7.168,2.688
		C457.6,333.76,452.224,336.448,446.848,338.688z M453.568,321.664c2.239,0,4.031,0,6.271,0c-1.792,0-3.584,0.448-5.376,0.448
		C454.464,322.112,454.016,322.112,453.568,321.664L453.568,321.664z M462.976,309.568c-3.136,0-5.823-0.448-8.96-0.448
		c0-0.448,0-0.448,0.448-0.896c4.48-0.447,8.96-1.344,12.992-2.239c4.928,1.344,9.856,1.792,14.784,2.688v0.448
		C475.52,309.12,469.248,309.568,462.976,309.568z M482.688,330.176c8.961-3.584,18.816-6.271,28.225-8.063
		C504.192,331.52,493.888,331.968,482.688,330.176z M514.496,314.496c-11.648,2.24-23.296,4.928-34.496,9.408
		c0.448-0.448,0.896-0.896,0.896-1.345c2.688-1.344,5.375-2.688,8.063-4.031c9.856-2.24,19.264-5.824,27.328-11.2l0,0
		C515.84,309.568,515.392,312.256,514.496,314.496z M513.152,268.8c0.447,0,1.344,0.448,1.792,0.448c0,0.448,0,0.448,0,0.896h-0.448
		C514.048,270.144,513.6,269.696,513.152,268.8z M516.736,298.816c-0.448-0.448-0.896-0.448-0.896-0.896
		c0.448,0,0.896,0.448,1.344,0.448C516.736,298.816,516.736,298.816,516.736,298.816L516.736,298.816z M514.944,257.6
		c-0.448-0.448-1.345-0.896-1.792-0.896c0,0,0,0-0.448,0c3.584-1.344,7.168-3.136,10.752-4.928
		c4.928,1.344,10.304,2.24,15.231,2.688v0.448c-0.896,0-2.239,0.448-3.136,0.448C528.832,255.808,521.664,256.704,514.944,257.6z
		 M538.24,261.184c-0.448,3.584-1.344,7.168-2.24,10.752c-4.928-2.24-9.855-4.48-15.232-6.272c0-0.896-0.447-1.344-0.896-2.24
		C526.145,262.528,532.416,261.632,538.24,261.184z M521.664,313.152c0-0.448,0-0.896,0.448-1.345
		c0.447,0.448,0.896,0.448,0.896,0.896C522.56,313.152,522.112,313.152,521.664,313.152z M523.008,293.439L523.008,293.439
		c-0.448-3.135-1.344-6.271-2.24-9.407c2.24,0.896,4.48,2.239,7.168,3.584C526.592,289.855,524.8,291.648,523.008,293.439z
		 M531.52,282.24c-3.136-1.344-7.615-3.136-10.752-4.48c0.448-1.344-0.447-3.136-0.447-4.928l0,0
		c4.479,1.344,8.512,3.136,11.647,4.48C531.52,279.104,531.968,280.896,531.52,282.24z M535.552,297.92
		c1.792-0.896,3.584-2.24,5.376-3.584c12.097,6.271,24.192,12.544,36.288,18.816C563.776,307.776,549.888,302.848,535.552,297.92z"
		/>
	<polygon points="500.16,227.584 500.16,227.584 500.16,228.032 	"/>
	<path d="M559.296,190.848L559.296,190.848L559.296,190.848z"/>
	<path d="M415.936,193.088L415.936,193.088C415.936,193.536,415.936,193.536,415.936,193.088
		C415.936,193.536,415.936,193.536,415.936,193.088z"/>
	<path d="M441.92,154.56h-0.448c0,0,0,0,0,0.448C441.472,154.56,441.472,154.56,441.92,154.56z"/>
	<path d="M401.6,181.888c0.448,0.448,0.448,0.448,0.896,0.896C402.048,182.336,402.048,182.336,401.6,181.888L401.6,181.888z"/>
</g>
</svg>
